<svg xmlns="http://www.w3.org/2000/svg" viewBox="0 0 32 32" enable-background="new 0 0 32 32"><g fill-rule="evenodd" clip-rule="evenodd"><path d="M31.8 17.9l-9.8.4c-.3 0-.3.1-.4.4l-1.9 8.9c-.2 1-.4 2-.7 3h.4l9.6-.7c.3 0 .4-.1.4-.4.7-3.1 1.4-6.2 2.1-9.2l.5-2.3c-.1-.1-.1-.1-.2-.1zm-9.2 10.6c-.6.3-1.1-.1-1.1-1 .1-.6.4-1.2 1-1.5.6-.3 1 0 1.2.6.1.7-.4 1.6-1.1 1.9zm1.4-5.9c-.6.4-1.3.1-1.3-.7 0-.7.2-1.2.7-1.6.3-.2.6-.3 1-.2.3.1.5.5.4 1 .1.6-.2 1.2-.8 1.5zm1 2.8c-.4-.2-.4-.5-.4-1 .1-.6.3-1.1.9-1.5.6-.3 1.1 0 1.2.6.1.7-.2 1.2-.7 1.6-.3.4-.7.5-1 .3zm2.7 2.7c-.6.4-1.2.1-1.2-.6s.2-1.2.8-1.6c.3-.2.6-.3.9-.1.3.2.4.5.4.8 0 .6-.3 1.1-.9 1.5zm1.2-5.7c-.6.3-1.1.1-1.2-.6-.1-.6.2-1.2.6-1.6.3-.2.6-.4 1-.2s.5.5.5.9c0 .7-.3 1.2-.9 1.5zM14.7 4.5c-.2 0-.3-.1-.4-.1-2.9-.5-5.8-1-8.7-1.6-.3-.1-.4 0-.6.3-1.5 2.9-3 5.7-4.4 8.6-.2.3-.4.7-.6 1.1 3.1.7 6.2 1.4 9.4 2l5.3-10.3zm-3.8 1.2c.5-.2.8.1.8.6 0 .6-.5 1.4-1.1 1.6-.6.1-.9-.1-.9-.7s.6-1.3 1.2-1.5zm-2.4-.4c.5-.2.9.1.8.6 0 .6-.6 1.3-1.1 1.5-.5.2-.8-.1-.8-.6 0-.6.5-1.3 1.1-1.5zm-4.9 6.4c-.5.1-.8-.1-.8-.6 0-.6.6-1.4 1.1-1.6.5-.2.8.1.8.6.1.6-.5 1.4-1.1 1.6zm2.2.5c-.5.1-.8-.1-.8-.6 0-.6.6-1.4 1.2-1.6.4-.2.8 0 .8.5 0 .6-.6 1.5-1.2 1.7zm.1-5.2c-.4.2-.7-.1-.7-.6 0-.6.6-1.4 1.2-1.6.4-.1.7.2.7.6 0 .6-.6 1.4-1.2 1.6zm2.3 5.6c-.5.2-.9-.1-.8-.6 0-.6.6-1.4 1.2-1.6.4-.2.7.1.7.6 0 .6-.5 1.4-1.1 1.6zM20.6 18.1c-1.5-1-2.9-2-4.3-3.1-.6-.4-1.3-.9-1.9-1.4l-.3 1.5c-.6 3.2-1.2 6.4-1.8 9.7-.1.3 0 .4.2.6 1.8 1.5 3.6 3 5.5 4.5l.3.3c0-.1 0-.1.1-.2l2.5-11.5c-.1-.2-.2-.3-.3-.4zm-5.7-.9c.1-.4.6-.5.9-.3.5.4.6.9.6 1.4 0 .3 0 .6-.4.7-.4.1-.6-.1-.8-.4-.3-.4-.4-.9-.3-1.4zm.4 4c0-.4 0-.7.3-.9.3-.1.6.1.8.4.3.5.4 1 .3 1.5-.1.5-.6.6-1 .2-.2-.3-.3-.7-.4-1.2zm1.9 5.3c-.2.1-.6-.1-.8-.3-.5-.4-.6-1-.5-1.6.1-.4.3-.5.7-.4.5.2.7.5.8.9.1.2.1.4.1.7 0 .2-.2.7-.3.7zM23 12.7c-2.7 0-5.5 0-8.2.1h-.3c.1.1.2.1.2.2l6.4 4.5c.1.1.4.2.5.2 1.5 0 2.9-.1 4.4-.2 1.8-.1 3.6-.1 5.6-.2-.1-.1-.2-.1-.2-.2l-8-4.3c-.1-.1-.2-.1-.4-.1zm1.2 2.5c0 .1-.3.3-.4.3-.9.1-1.6-.1-2.3-.7-.3-.3-.2-.5.2-.6.2 0 .3 0 .4-.1.7.1 1.3.2 1.9.7.1 0 .2.2.2.4zM10.3 15.1c0 .3.4.6.7.9.5.6 1 1.1 1.4 1.7l1.2-5.7c.1-.3.2-.3.4-.3h4.9c.2 0 .4 0 .5-.3.1-.3.2-.4 0-.7l-3.9-5.3-.2-.3c-.1.2-.2.3-.2.4l-4.3 8.6c-.3.3-.6.7-.5 1zm4.9-6.7c.2-.2.5-.3.6-.3.2.1.3.4.3.5.1.7-.2 1.2-.6 1.6-.1.1-.4.3-.5.2-.2-.1-.3-.4-.3-.5-.1-.6.1-1.1.5-1.5zM9.6 15.7c-.1-.1-.3-.2-.5-.3l-8.6-1.9h-.4l.2.2 6.2 5.7.3.2c1.7.4 3.4.8 5.1 1.3l.3-1.8c0-.1 0-.4-.1-.5-.8-1-1.6-1.9-2.5-2.9zm-4.1.8c-.3.5-2.2-.5-1.9-1.1.2-.5 2.2.5 1.9 1.1zm2.3 2.3c-.2.5-1.9-.5-1.6-.9.2-.5 1.8.4 1.6.9zm1.3-1.4c-.7-.1-1.3-.4-1.7-1-.2-.2-.1-.4.2-.4.6.1 1.2.4 1.6 1 .2.2.1.4-.1.4zm2.3 2.3c-.3.5-2.1-.5-1.8-1 .3-.5 2.1.5 1.8 1zM25.5 10.2h2.3v-3.4h3.4v-2.3h-3.4v-3.4h-2.3v3.4h-3.4v2.3h3.4z"/></g></svg>