<svg xmlns="http://www.w3.org/2000/svg" viewBox="0 0 32 32" enable-background="new 0 0 32 32"><g fill-rule="evenodd" clip-rule="evenodd" fill="#010101"><path d="M13.6 4.8c-7.5 0-13.6 6.1-13.6 13.6s6.1 13.6 13.6 13.6 13.6-6.1 13.6-13.6-6.1-13.6-13.6-13.6zm-6.5 22.4c-2.7-2-4.4-5.2-4.4-8.8 0-.9.1-1.8.3-2.7h.1l2.6 2.6-.6 3.6 2.1 2.1-.1 3.2zm16.8-12l-1-.5-1.2-.3h-1.4l-1.4.6-1.2.4-1 1.1v1.2l.3 1.5.7.5 1.1.5.8.5.5.5h.3v5.7c-1.9 1.5-4.2 2.4-6.8 2.4-1.3 0-2.6-.2-3.8-.7l3.1-6.8-.5-1.8-.3-1.6-1.4-1.4-1.6-1h-.8l-1.1 1.3-1.1-1.9 1.1-.5 2.4-1.8.4-1.9 1.2-2.5v-.5l-.3-.4c.9-.2 1.8-.3 2.7-.3.8 0 1.6.1 2.4.3l-.1.2-.4 1.2 1.3.3 1.4-.2.4-.3v-.2c.5.2.9.5 1.3.8l-.2.3-1 .1-1.1 1 .9.5.1.9-1.2.1v.9l.3.6.9.2h1.1v-1.2l.4-.5.8-.5h.5l1 .3c.7.7 1.2 1.8 1.5 2.9zM28.4 3.6v-3.6h-2.5v3.6h-3.6v2.5h3.6v3.6h2.5v-3.6h3.6v-2.5z"/></g></svg>