<svg xmlns="http://www.w3.org/2000/svg" viewBox="0 0 32 32" enable-background="new 0 0 32 32"><g fill-rule="evenodd" clip-rule="evenodd"><path d="M1.7 14.7v.4h28.6v-3.6c0-.7-.2-1.4-.5-2.1-.6-1.2-1.6-2-2.7-2.7-2.1-1.3-4.5-1.7-6.9-1.7h-8.3c-1 0-2 .1-3 .3-1.8.3-3.5 1-5 2.2-1.4 1.2-2.2 2.7-2.2 4.6v2.6zm21-4.6c.5 0 .9.4.8.9 0 .5-.4.8-.8.8-.5 0-.8-.4-.8-.9 0-.4.4-.8.8-.8zm-3.3-3.3c.5 0 .8.3.8.8s-.4.9-.8.9c-.5 0-.9-.4-.8-.9-.1-.5.3-.8.8-.8zm-3.4 3.3c.5 0 .8.4.8.9 0 .4-.4.8-.9.8s-.9-.4-.8-.9c.1-.4.5-.8.9-.8zm-3.4-3.3c.5 0 .8.4.8.8 0 .5-.4.9-.9.8-.5 0-.8-.4-.8-.9.1-.4.5-.8.9-.7zm-3.3 3.3c.5 0 .8.4.8.8 0 .5-.4.8-.8.8-.5 0-.9-.4-.9-.8s.4-.8.9-.8zM1.7 21.9v1.5c0 1.9 1.6 3.5 3.5 3.5h21.5c.3 0 .6 0 .9-.1 2-.6 3.1-2.7 2.5-4.9h-28.4zM30 16.9h-28.5c-.7 0-1.5.8-1.5 1.6s.7 1.6 1.5 1.7h28.4c1.2 0 2-.7 2-1.7.1-.9-.8-1.6-1.9-1.6z"/></g></svg>