<svg xmlns="http://www.w3.org/2000/svg" viewBox="0 0 32 32" enable-background="new 0 0 32 32"><path fill-rule="evenodd" clip-rule="evenodd" d="M26.7 29.6v-29.6h-21.4v29.6h-4.4v2.4h30.2v-2.4h-4.4zm-17.9-25.7c0-.2 0-.4.3-.4h4.1v4h-4c-.3 0-.4-.1-.4-.4v-3.2zm0 6.3c0-.1.2-.4.3-.4h4s.1 0 .1.1v3.9h-4.1c-.3 0-.4-.1-.4-.4.1-1.1.1-2.1.1-3.2zm0 6h4.4v3.9h-4.4v-3.9zm4.8 13.3h-4.4v-7h4.4v7zm4.5-19.4c0-.1.2-.3.3-.3h3.9c.1 0 .3.2.3.3v3.4c0 .1-.2.3-.3.3h-4.2v-3.7zm0 6.1h4.4v3.5c0 .1-.2.4-.3.4h-4.2c.1-1.3.1-2.6.1-3.9zm4.4 9.9c0 .1-.2.4-.3.4h-4s-.1 0-.1-.1v-3.9h4.1c.3 0 .4.1.4.4l-.1 3.2zm.1-19c0 .3 0 .4-.3.4h-3.8c-.1 0-.1 0-.2-.1v-3.9h3.9c.3 0 .5.1.4.4-.1 1.1-.1 2.1 0 3.2z"/></svg>