<svg xmlns="http://www.w3.org/2000/svg" viewBox="0 0 32 32" enable-background="new 0 0 32 32"><path d="M11.4 9.6s2.3 2.5 7.3 0c0 0-.3-3 2.4-5.9.5-.5.3-2.7-1.9-1.8-.4.1-.8.6-1.9.1-.6-.3-2.5-3.3-4.1-1.3-.4.5-.4 1.2-1.6 2-1.2.9-4.9-1.2-3.3 2.1l3.1 4.8zm3.3-5.7l1.8 1.6-.5.9-1.3-1.2-1.5 1.2-.4-.7 1.9-1.8zM13 21.6c0 1.5.3 2.6.8 3.2.4.5.9.8 1.5.9v-8c-.6.1-1.1.4-1.5.9-.5.6-.8 1.6-.8 3zM31.8 23.7c-3.7-11.5-13.4-12.4-13.4-12.4-2.5 1.8-6.6.2-6.6.2-6.1 1.4-13 10.2-11.6 15.4 1.3 5.2 10.6 5.1 10.6 5.1h11.9c11.3-.6 9.1-8.3 9.1-8.3zm-15.3 4.1v1.5h-1.2v-1.5c-1.3-.1-2.4-.6-3.3-1.6-1-1.1-1.5-2.5-1.5-4.4 0-2 .5-3.5 1.5-4.6.9-.9 2-1.5 3.3-1.6v-.8h1.2v.8c1.2.1 2.3.5 3.1 1.3.5.5.9 1.2 1.2 2.2l-2.4.6c-.1-.6-.4-1.1-.9-1.4-.3-.2-.7-.4-1-.5v8c1-.2 1.7-1.1 2-2.4l2.3.7c-.6 2.2-2 3.5-4.3 3.7z"/></svg>