<?xml version="1.0" encoding="utf-8"?>
<!-- Generator: Adobe Illustrator 19.0.0, SVG Export Plug-In . SVG Version: 6.00 Build 0)  -->
<svg version="1.1" id="Calque_2" xmlns="http://www.w3.org/2000/svg" xmlns:xlink="http://www.w3.org/1999/xlink" x="0px" y="0px"
	 viewBox="0 0 32 32" enable-background="new 0 0 32 32" xml:space="preserve">
<path d="M20.2,0c0,0-6.2-0.3-7.9,3.4S7.4,13.8,7.4,14.7c0,0.8,0.1,1.5,0.9,1.5c0.8,0,5.2,0,5.9,0c0.7,0,0.8,0.5,0.5,1
	C14.5,17.7,7,32,7,32s17.5-20.4,17.8-20.8c0.3-0.5,0.2-1.3-0.8-1.3c-1,0.1-7.4,0.3-8.5,0C14.4,9.6,20.2,0,20.2,0z"/>
</svg>
