<svg xmlns="http://www.w3.org/2000/svg" viewBox="0 0 32 32" enable-background="new 0 0 32 32"><path d="M0 0v32l32-32h-32zm8.3 21.5h-2.4v-16.6h-.1l-3.3 1.8-.5-2 4.1-2.2h2.2v19zm4.8-12.3c-.7 0-1.3-.2-1.7-.4l.3-.9c.3.2.9.4 1.5.4.8 0 1.2-.4 1.2-.9s-.3-.8-1.2-1.1c-1.1-.4-1.6-1-1.6-1.8 0-1 .8-1.8 2.1-1.8.6 0 1.2.2 1.5.4l-.3.8c-.2-.2-.7-.4-1.3-.4-.7 0-1 .4-1 .8 0 .5.4.7 1.2 1.1 1.1.4 1.6 1 1.6 1.9 0 1.2-.9 1.9-2.3 1.9zm6-.9c.3 0 .5 0 .7-.1l.1.8c-.2.1-.6.2-1 .2-.5 0-1-.2-1.2-.5-.3-.3-.4-.9-.4-1.6v-3.4h-1v-.8h1v-1.5l1.1-.3v1.8h1.6v.9h-1.6v3.4c-.2.7 0 1.1.7 1.1z"/></svg>