<svg xmlns="http://www.w3.org/2000/svg" viewBox="0 0 32 32" enable-background="new 0 0 32 32"><g fill-rule="evenodd" clip-rule="evenodd" fill="#010101"><path d="M12.7 6.7c-7 0-12.7 5.7-12.7 12.7 0 6.9 5.7 12.6 12.7 12.6s12.6-5.7 12.6-12.6c0-7-5.7-12.7-12.6-12.7zm-4.5 18.3h-3.4v-11.9h3.3v11.9zm7.9.3c-3.4 0-6.1-2.6-6.1-6.2 0-3.5 2.7-6.2 6.3-6.2 2.4 0 4 1 5 2.5l-2.5 1.9c-.7-.9-1.5-1.4-2.6-1.4-1.7 0-2.8 1.4-2.8 3.1 0 1.8 1.2 3.2 2.8 3.2 1.2 0 2-.6 2.7-1.4l2.5 1.8c-1.2 1.5-2.7 2.7-5.3 2.7zM27.7 4.3v-4.3h-3v4.3h-4.4v3h4.4v4.4h3v-4.4h4.3v-3z"/></g></svg>