<svg xmlns="http://www.w3.org/2000/svg" viewBox="0 0 32 32" enable-background="new 0 0 32 32"><path d="M0 0v32l32-32h-32zm8 23.7l-6.6-6.5 1.2-1.2 5.7 5.6 3-3 .9.9-4.2 4.2zm7.8-7.8c-.1 0-.3-.2-.6-.3 0 .7-.2 1.3-.7 1.8-.5.5-1 .8-1.6.8-.6 0-1.1-.2-1.5-.6-.5-.5-.7-1.1-.6-1.8.1-.7.5-1.4 1.2-2.1l.7-.7-.3-.3c-.3-.3-.5-.4-.8-.4-.3 0-.6.1-.9.4-.2.2-.4.5-.4.8 0 .3 0 .5.2.7l-1.1 1.1c-.3-.3-.4-.6-.5-1-.1-.4 0-.8.2-1.3.2-.4.4-.8.8-1.2.6-.6 1.2-.9 1.8-.9.6-.1 1.2.2 1.7.7l2.2 2.2c.4.4.9.7 1.2.9l.1.1-1.1 1.1zm5-5.7c-.1.6-.4 1.2-1 1.8-.4.4-.8.7-1.3.9s-.9.2-1.3.1-.8-.3-1.1-.6l1.1-1.1c.3.2.6.3.9.3.3 0 .6-.2.9-.5.3-.3.5-.6.5-.8 0-.3 0-.5-.2-.7-.2-.2-.4-.3-.7-.2-.3.1-.6.2-1.1.5-.4.3-.9.5-1.2.6-.8.3-1.5.2-2-.3-.4-.4-.6-.9-.5-1.6s.4-1.2.9-1.8c.6-.6 1.2-.9 1.8-1 .6-.1 1.2.1 1.7.6l-1.1 1.1c-.2-.2-.5-.3-.8-.3-.3 0-.6.2-.8.4-.2.2-.4.5-.4.8 0 .3 0 .5.2.7.2.2.4.2.6.2.2 0 .6-.2 1.1-.6s1-.6 1.3-.7c.4-.1.7-.1 1-.1s.6.2.8.5c.6.6.8 1.2.7 1.8zm.8-2.8l-2.8-2.8-.8.9-.8-.8.8-.8-1.2-1.2 1.1-1.1 1.2 1.2.9-.9.8.8-.9.9 2.7 2.7c.2.2.4.3.5.3.2 0 .3-.1.5-.3l.3-.4.8.8c-.2.3-.4.6-.6.8-.7.9-1.6.9-2.5-.1zM13.3 13.8l-.6.6c-.4.4-.6.8-.7 1.1-.1.3 0 .6.3.9.2.2.4.3.7.3.3 0 .5-.1.7-.4.2-.2.4-.5.5-.8s.1-.6 0-.9l-.9-.8z"/></svg>