<svg xmlns="http://www.w3.org/2000/svg" viewBox="0 0 32 32" enable-background="new 0 0 32 32"><g fill-rule="evenodd" clip-rule="evenodd"><path d="M17.3 23.8c3.6-.6 6.3-3.6 6.5-7.2.1-1.3 0-2.6 0-3.9v-.2h-2.2v3.4c0 .4 0 .9-.1 1.3-.5 2.7-2.9 4.6-5.6 4.5-2.8-.1-5.1-2.3-5.3-5.1-.1-1.2 0-2.5 0-3.7v-.4h-2.3v3.8000000000000003c.1 3.9 2.7 6.9 6.6 7.5.3 0 .3.2.3.4v5.3h-5.1v2.5h12.2v-2.5h-5.1v-5.4c-.2-.2-.1-.2.1-.3zM15.8 20.1c2.5.1 4.5-1.8 4.5-4.4v-6.6h-8.6v7c.1 2.2 2 3.9 4.1 4zM16 0c-2.1 0-4 1.7-4.2 3.8h8.4c-.1-2.1-2.1-3.8-4.2-3.8zM20.3 5.5h-8.6v1.9h8.6v-1.9z"/></g></svg>