<svg xmlns="http://www.w3.org/2000/svg" viewBox="0 0 32 32" enable-background="new 0 0 32 32"><g><path d="M28.3 16.7h-22.7l-3.6 3.9 2.1-.1s1.2 2.1 2.9 2.1h19.9l2.9-2h2.2s-1.6-3.9-3.7-3.9zm-21.2 4.7c-.9 0-1.7-.7-1.7-1.7 0-.9.7-1.7 1.7-1.7.9 0 1.7.7 1.7 1.7-.1.9-.8 1.7-1.7 1.7zm3.9-.1c-.9 0-1.7-.7-1.7-1.7 0-.9.7-1.7 1.7-1.7.9 0 1.7.7 1.7 1.7s-.8 1.7-1.7 1.7zm4 0c-.9 0-1.7-.7-1.7-1.7 0-.9.7-1.7 1.7-1.7.9 0 1.7.7 1.7 1.7s-.7 1.7-1.7 1.7zm4.1 0c-.9 0-1.7-.7-1.7-1.7 0-.9.7-1.7 1.7-1.7s1.7.7 1.7 1.7c-.1 1-.8 1.7-1.7 1.7zm3.9 0c-.9 0-1.7-.7-1.7-1.7 0-.9.7-1.7 1.7-1.7s1.7.7 1.7 1.7-.8 1.7-1.7 1.7zm4 .1c-.9 0-1.7-.7-1.7-1.7 0-.9.7-1.7 1.7-1.7s1.7.7 1.7 1.7c0 .9-.8 1.7-1.7 1.7zM25.6 13.8c1.2-2.8-.9-3.1-.9-3.1l-5.5-.1v-.5c0-.5-.9-.7-.9-.7h-3.5s-.9.3-.9.9v.5h-.6c-.9 0-2.1 1.5-2.5 2h-10.8v2h10s.6 1.3 1.2 1.3h16.7v-1.3c.1-.1-1.3 0-2.3-1z"/></g></svg>