<svg xmlns="http://www.w3.org/2000/svg" viewBox="0 0 32 32" enable-background="new 0 0 32 32"><path d="M14.6 11.5l-3.6.6-.2-.6c-.2-.9-.4-1.7-.4-2.6 0-.5.1-.9.4-1.3 1.1-1.7 3.3-2.1 5-1.1.7.5 1.2.9 1.8 1.4.1-.5.3-1.4 1.3-1.4h.8l-.4-.5c-1.4-1.5-3.1-2.5-5-3.2-1.9-.7-3.8-.6-5.6.4-.9.5-1.7 1.1-2.3 1.9-.8.9-1.2 2-1.4 3.2-.3 1.5-.2 3 .1 4.5l.1.3-5.1.9c3.1 2.2 6.2 4.4 9.2 6.6l5.8-8.2-.5-.9zM19.4 8.7c-.3.3-.3.8-1 1.3-.8.6-3.3-.8-2.2 1.4l2 3.2s1.5 1.6 4.9 0c0 0-.2-2 1.6-3.9.3-.3.2-1.8-1.3-1.2-.3.1-.6.5-1.2.1-.4-.2-1.7-2.2-2.8-.9zm1 2.2l1.2 1.1-.3.5-.9-.8-1 .8-.3-.5 1.3-1.1zM19.8 20.6c-.4.4-.5 1.1-.5 2 0 1 .2 1.7.5 2.1.3.3.6.5 1 .6v-5.3c-.4.1-.7.3-1 .6zM31.8 24c-2.5-7.6-8.9-8.3-8.9-8.3-1.6 1.2-4.4.1-4.4.1-4 .9-8.6 6.8-7.7 10.3l7.1 3.4h7.9c7.5-.3 6-5.5 6-5.5zm-10.2 2.8v1h-.8v-1c-.9-.1-1.6-.4-2.2-1.1-.7-.7-1-1.7-1-2.9 0-1.3.3-2.3 1-3.1.6-.6 1.3-1 2.2-1.1v-.5h.8v.5c.8.1 1.5.3 2 .8.4.3.6.8.8 1.4l-1.6.4c-.1-.4-.3-.7-.6-1-.2-.2-.4-.3-.7-.3v5.3c.7-.2 1.1-.7 1.3-1.6l1.5.5c-.2 1.7-1.2 2.6-2.7 2.7z"/></svg>