<svg xmlns="http://www.w3.org/2000/svg" viewBox="0 0 32 32" enable-background="new 0 0 32 32"><g fill-rule="evenodd" clip-rule="evenodd" fill="#010101"><path d="M22.4 26.2v1.1c0 1.1-.2 1.4-1.4 1.4h-11.1c-.9 0-1.3-.1-1.4-.7 1.4 0 2.8-.2 4.2-.5 1-.2 2.3-.5 2.5-1.7.1-.4.1-.8 0-1.1-.3-1.7-2.1-2.3-3.5-2.9-.4-.2-.7-.3-1.1-.4-1.1-.6-1.3-1.4-.5-2.4.9-1.1 1.4-2.4 1.6-3.7.3-1.8-.5-3.7-1.9-4.5-.4-.2-.8-.4-1.3-.5.1-.7.5-.8 1.4-.8h10.1c2.3 0 2.3-.2 2.3 2.4 0 1.4.2 2.8 1.7 2.8v-3.4c0-1.7.1-3.5-2-3.5h-13.4c-1.7 0-1.9 0-2 2.5-.6.1-1.2.4-1.7.8-1.5 1.3-1.8 3.1-1.2 4.9.3 1.1.9 2.1 1.5 3 .8 1 .6 1.7-.4 2.2-1.1.5-2.3 1.1-3.3 1.7-.6.4-1.2 1-1.5 1.7 0 .4 0 .8.1 1.2.3 1.2 1.5 1.5 2.5 1.7 1.4.3 2.8.4 4.2.5 0 2.4.2 2.4 2 2.4h13.4c1 0 1.8-1 1.9-2.1v-4.8c-1.5-.1-1.7 1.3-1.7 2.7zM18.1 14.2v2.3h-4.9c-1 0-1.2.3-1.3 1.3v2.6c0 1 .3 1.3 1.3 1.3h4.9v2.3c0 .2.2.6.4.7.1.1.5-.1.7-.2 2-1.7 4-3.5 6.2-5.3-2.2-1.9-4.2-3.7-6.3-5.5-.5-.5-1-.2-1 .5zM22.3 3.6h9.7v2.5h-9.7z"/></g></svg>