<svg xmlns="http://www.w3.org/2000/svg" viewBox="0 0 32 32" enable-background="new 0 0 32 32"><g fill-rule="evenodd" clip-rule="evenodd"><path d="M15.2 2.7h3v7h-3zM30.8 24.8l-3.3-2.8 4.6-2.3-5.2-.7 4.6-3.4-5.2 1.1v-.1l1-5.6-1 1.1v-5.9c0-3.6-3.8-5.7-5.8-5.7h-17c-1.9.1-3.5 1.6-3.5 3.5v19.3c0 1.9 1.6 3.5 3.5 3.5h11l-1.3 1.3 2.6-1.3h3.8l-1.5 4.6 4.1-4.6h.6c.4 0 .9-.1 1.3-.2l4.9 3.5-3-5.7v-.1l4.8.5zm-25.6-21.9c0-.6.5-1.2 1.2-1.2h12.6c.6 0 1.2.5 1.2 1.2v6.7c0 .6-.5 1.2-1.2 1.2h-12.7c-.6 0-1.2-.5-1.2-1.2v-6.7zm10.4 22.7h-11.3c-.6 0-1.2-.5-1.2-1.2v-9.6c0-.6.5-1.2 1.2-1.2h11.3l2.9 4.2-4.9-.3 4 3-6.9 1.4 7.5 1.1-2.6 2.6zm4.4 0h-1.9l2.3-1.2-.4 1.2zm.8-9.1l-4.2-2.8h4.7l-.5 2.8zm2.4-1l-.6.6-.8-2.5h.2c.6 0 1.2.5 1.2 1.2v.7z"/></g></svg>