<svg xmlns="http://www.w3.org/2000/svg" viewBox="0 0 32 32" enable-background="new 0 0 32 32"><g fill-rule="evenodd" clip-rule="evenodd" fill="#010101"><path d="M28.2 25.1v1.3c0 1.4-.3 1.7-1.8 1.7h-14c-1.1 0-1.6-.1-1.7-.8 1.8-.1 3.6-.3 5.3-.6 1.3-.3 2.9-.7 3.2-2.1.1-.5.1-1 0-1.4-.4-2.1-2.6-2.9-4.4-3.7l-1.4-.6c-1.5-.6-1.8-1.7-.8-2.9 1.1-1.4 1.8-3 2.1-4.7.4-2.3-.6-4.7-2.4-5.7-.5-.3-1.1-.5-1.6-.6.1-.8.5-.9 1.7-.9h12.8c2.9 0 3-.3 3 3.1 0 1.8.2 3.5 2.1 3.5v-4.3c0-2.1.1-4.4-2.5-4.4h-16.9c-2.2 0-2.4 0-2.5 3.1-.6.1-1.4.4-2 1-1.9 1.6-2.2 3.9-1.5 6.2.4 1.3 1.2 2.6 1.9 3.8.7 1.2.6 2.1-.7 2.7-1.4.7-2.8 1.3-4.1 2.2-.8.5-1.5 1.3-1.8 2.2-.2.5-.1.9 0 1.4.3 1.5 1.9 1.8 3.2 2.1 1.8.3 3.5.5 5.3.6 0 3 .3 3 2.5 3h16.9c1.3 0 2.3-1.3 2.4-2.7v-6c-2.1 0-2.3 1.7-2.3 3.5zM22.8 10v2.9h-6.1000000000000005c-1.2 0-1.6.4-1.6 1.6v3.3c0 1.2.4 1.6 1.6 1.6h6.1v2.9c0 .3.3.7.5.9.2.1.6-.1.8-.3 2.6-2.2 5.1-4.4 7.8-6.7l-8-6.9c-.5-.6-1-.2-1.1.7z"/></g></svg>