<svg xmlns="http://www.w3.org/2000/svg" viewBox="0 0 31.9 31.9" enable-background="new 0 0 31.9 31.9"><g fill-rule="evenodd" clip-rule="evenodd">


<path d="M15.9 4.9h2.9v6.5h-2.9zM30.7 25.7l-3.1-2.7 4.3-2.1-4.9-.6 4.3-3.2-4.9 1.1v-.1l.9-5.2-.9 1.1v-5.6c0-3.3-3.6-5.3-5.5-5.3h-16.1c-1.8-.2-3.2 1.3-3.2 3.1v18c0 1.8 1.5 3.3 3.3 3.3h10.5l-1.4 1.3 2.7-1.3h3.4l-1.5 4.4 3.9-4.4h.5c.4 0 .8-.1 1.1-.2l4.8 3.4-2.8-5.3v-.1l4.6.4zm-7.2-9.4v.7l-.5.6-.8-2.4h.2c.6 0 1.1.5 1.1 1.1zm-1.7-1.1l-.5 2.7-4.1-2.7h4.6zm-15.4-10.1c0-.6.5-1.1 1.1-1.1h12c.6 0 1.1.5 1.1 1.1v6.3c0 .6-.5 1.1-1.1 1.1h-12c-.6 0-1.1-.5-1.1-1.1v-6.3zm-.8 21.3c-.6 0-1.1-.5-1.1-1.1v-9c0-.6.5-1.1 1.1-1.1h10.6l2.8 4-4.6-.3 3.8 2.8-6.5 1.3 7.1 1.1-2.3 2.4h-10.9zm13.3 0l1.9-1-.3 1h-1.6z"></path>
<polygon fill="red" points="31.9,29.5 18,15.7 31.9,2 29.8,0 16,13.7 2.1,0 0.1,2 13.9,15.7 0,29.5 2,31.5 16,17.7 29.9,31.5 "/>



</g></svg>