<svg xmlns="http://www.w3.org/2000/svg" viewBox="0 0 32 32" enable-background="new 0 0 32 32"><path d="M32 29.9l-1.8-1.8.1-.6v-6c-1.9 0-2.1 1.7-2.1 3.5v1.2l-3.7-3.7c2.5-2.1 4.9-4.2 7.5-6.4-2.5-2.2-5-4.3-7.5-6.4l3.7-3.7v1.1c0 1.8.2 3.5 2.1 3.5v-4.3c0-.8 0-1.7-.1-2.4l1.8-1.8-2.1-2.1-1.8 1.8h-17.099999999999998c-2.2 0-2.4 0-2.5 3.1-.4.1-.7.2-1.1.4l-5.3-5.3-2.1 2.1 5.2 5.2c-.9 1.4-.9 3.1-.4 4.8.5 1.4 1.2 2.7 2 3.9.7 1.2.6 2.1-.7 2.7-1.4.7-2.8 1.3-4.1 2.2-.8.5-1.5 1.3-1.8 2.2-.2.5-.1.9 0 1.4.2 1.5 1.8 1.8 3.1 2.1l-3.3 3.3 2.1 2.1 4.9-4.9 1.6.1c0 3 .3 3 2.5 3h17.099999999999998l1.8 1.8 2-2.1zm-10.7-10.6h1.5v1.5l-1.5-1.5zm-9.1-1.6c-.2-.5-.1-1.1.5-1.8l.5-.7.8.8-1.8 1.7zm10.6-5h-1.5l1.5-1.5v1.5zm-10.3-8.7h13.5l-8.8 8.8h-.5c-.8 0-1.2.1-1.4.5l-.8-.8.3-1.2c.4-2.3-.6-4.7-2.4-5.7-.5-.3-1.1-.5-1.6-.6.1-.9.5-1 1.7-1zm0 24c-1.1 0-1.6-.1-1.7-.8 1.8-.1 3.6-.3 5.3-.6 1.3-.3 2.9-.7 3.2-2.1.1-.5.1-1 0-1.4-.4-2.1-2.6-2.9-4.4-3.7h-.1l.6-.6c.2.4.6.5 1.4.5h.5l8.7 8.7h-13.5z"/></svg>