<svg xmlns="http://www.w3.org/2000/svg" viewBox="0 0 32 32" enable-background="new 0 0 32 32"><path d="M32 29.9l-10.9-10.9c0-.4-.2-.8-.5-1.1l-1.3-1.3c.9-.8 1.4-2 1.5-3.3l5.8-5.8h.5c.3 0 .4.2.2.4l-2.5 2.6c-.2.2-.2.6.1.8l2.4 1.8c.3.2.2.4-.1.5l-4.6 1.4c-.3.1-.5.4-.4.7l.4 1.1c.1.3.5.5.8.4l6-1.9c.3-.1.6-.5.6-.8v-1.2c0-.3-.2-.8-.4-1l-1.6-1.5c-.2-.2-.3-.6 0-.8l1.7-1.7c.2-.2.3-.6.1-.9l-1.1-1.6c0-.1-.1-.1-.2-.2l3.5-3.6-2-2-4.4 4.4v-2.3c0-.3-.2-.7-.5-.8l-1.4-.6c-.3-.1-.8-.1-1 .1l-1.8 1.4c-.3.2-.7.2-.9 0l-2.6-2c-.3-.2-.7-.2-1-.1l-1.3.7c-.3.2-.5.6-.5.9v1.3c0 .3-.2.7-.5.8l-2.3 1c-.3.1-.5.5-.5.8v.8c0 .3.2.8.4 1l1 .9c.2.2.6.2.9 0l.1-.3c.2-.2.3-.6.1-.9l-.5-.7c-.2-.3-.1-.6.2-.6l2.3-.7c.3-.1.6-.4.6-.8l.1-1.8c0-.3.2-.4.5-.2l3 2.9c.2.2.6.2.9 0l2.4-2.4c.2-.2.4-.1.4.2v3.1l-3.7 3.8c-.4-.7-1.1-1.3-1.8-1.8-.8 0-1.3.7-1.4 1.4.7.4 1.3 1.1 1.6 1.9l-2.1 2.1c-.3-.3-.7-.5-1.1-.5l-13.1-13.1-2 2 11.9 11.9h-.6c-5 0-9.1 4.1-9.1 9.1 0 1.4.3 2.7.9 3.9l-3.2 3.1 2 2 2.7-2.7c1.7 1.7 4 2.8 6.6 2.8 5 0 9.1-4.1 9.1-9.1v-.6l9.7 9.7 1.9-2.1zm-20.5-.1c-.4 0-.7.1-1-.1-.3-.2-.4-.6-.4-.9 0-.3 0-.6.2-.7.3-.3.9-.2.9-.2 2.9-.2 4.9-2.3 5.1-5v-.8c.2-.2.5-.3.9-.3s.7.2 1 .4c.1.3.1.7.1 1.1 0 3.5-3 6.5-6.8 6.5z"/></svg>