<svg xmlns="http://www.w3.org/2000/svg" viewBox="0 0 32 32" enable-background="new 0 0 32 32"><path d="M29.5 12.3l-1.6-1.5c-.2-.2-.3-.6 0-.8l1.7-1.7c.2-.2.3-.6.1-.9l-1.1-1.6c-.2-.3-.6-.5-.9-.5h-1.5c-.3 0-.6-.3-.6-.6v-2.6c0-.3-.2-.7-.5-.8l-1.4-.6c-.3-.1-.8-.1-1 .1l-1.8 1.4c-.3.2-.7.2-.9 0l-2.6-2c-.3-.2-.7-.2-1-.1l-1.3.7c-.3.2-.5.6-.5.9v1.3c0 .3-.2.7-.5.8l-2.3 1c-.3.1-.5.5-.5.8v.8c0 .3.2.8.4 1l1 .9c.2.2.6.2.9 0v-.3c.2-.2.3-.6.1-.9l-.5-.7c-.2-.3-.1-.6.2-.6l2.3-.7c.3-.1.6-.4.6-.8l.1-1.8c0-.3.2-.4.5-.2l3 2.9c.2.2.6.2.9 0l2.4-2.4c.2-.2.4-.1.4.2l.1 3.8c0 .3.3.6.6.6h2.6c.3 0 .4.2.2.4l-2.5 2.6c-.2.2-.2.6.1.8l2.4 1.8c.3.2.2.4-.1.5l-4.5 1.5c-.3.1-.5.4-.4.7l.4 1.1c.1.3.5.5.8.4l6-1.9c.3-.1.6-.5.6-.8v-1.2c0-.4-.2-.8-.4-1zM19.2 16.5c.9-.9 1.5-2.2 1.5-3.6v-.5c0-1.9-1-3.5-2.5-4.4-.8 0-1.3.7-1.4 1.4 1.1.6 1.8 1.8 1.8 3.2 0 .9-.3 1.7-.8 2.3l-1.5-1.5c-.7-.7-1.8-.7-2.5-.1-.2.2-.3.4-.4.6-.7-.2-1.4-.3-2.2-.3-5 0-9.1 4.1-9.1 9.1s4.1 9.1 9.1 9.1 9.1-4.1 9.1-9.1c0-.8-.1-1.5-.3-2.3.2-.1.4-.2.5-.4.7-.7.6-1.8-.1-2.5l-1.2-1zm-7.7 13.3c-.4 0-.7.1-1-.1-.3-.2-.4-.6-.4-.9 0-.3 0-.6.2-.7.3-.3.9-.2.9-.2 2.9-.2 4.9-2.3 5.1-5v-.8c.2-.2.5-.3.9-.3s.7.2 1 .4c.1.3.1.7.1 1.1 0 3.5-3.1 6.5-6.8 6.5z"/></svg>