<svg xmlns="http://www.w3.org/2000/svg" viewBox="0 0 32 32" enable-background="new 0 0 32 32"><path d="M31.8 29.6l-4.1-4.1 2.9.3-3.1-2.7 4.3-2.1-4.8-.7 4.3-3.2-4.9 1.1v-.1l.9-5.2-.9 1.1v-5.6c0-.3 0-.5-.1-.8l5.5-5.6-2-2-4.9 4.9c-1.2-1.3-2.9-1.9-4-1.9h-15.8l-2.9-3-2 2 2.2 2.2c-.4.5-.7 1.2-.7 2v18.1c0 1 .5 1.9 1.2 2.5l-2.8 2.8 2 2 4-4h9.2l-1.3 1.4 2.7-1.4h3.4l-1.4 4.4 3.9-4.5h.5c.4 0 .7-.1 1.1-.2l4.7 3.4-.1-.1 1 1 2-2zm-15.8-11.8l1.4 1.4-2.6-.2 1.2-1.2zm7-.1l-.8-2.4h.2c.6 0 1.1.5 1.1 1.1v.7l-.5.6zm-1.2-2.5l-.5 2.8-3.2-2.1-.1-.1.5-.5h3.3zm-14.1-11.2h11.9c.6 0 1.1.5 1.1 1.1v4l-1.9 1.9v-6.1h-2.8v6.5h2.4l-1 1h-2.7l-8-7.9c.2-.3.6-.5 1-.5zm3 8.4h-3c-.6 0-1.1-.5-1.1-1.1v-3l4.1 4.1zm-6.1 3.9c0-.6.5-1.1 1.1-1.1h7.7l.5.5-9.4 9.4v-8.8zm2.7 10.1l7.3-7.3 3.5 2.6-6.4 1.3 7.1 1.1-2.3 2.4h-9.2zm11.6 0l1.9-1-.3 1h-1.6z"/></svg>