<svg xmlns="http://www.w3.org/2000/svg" viewBox="0 0 32 32" enable-background="new 0 0 32 32"><path d="M28.2 4c-2.2.1-4.5 0-6.7 0-.4-2.6-.4-2.6-3-2.6h-5c-2.6 0-2.6 0-3 2.6-2.2 0-4.5.1-6.8 0-1.7-.1-2.9.4-3.7 2v22.6c.7 1.5 1.8 2.1 3.5 2 8.3-.1 16.6-.1 25 0 1.7 0 2.8-.5 3.5-2v-22.6c-.8-1.6-2.1-2.1-3.8-2zm.4 21.7c0 1.4-.9 1.6-2 1.6h-21.1c-1.6 0-2-.4-2-2v-15.8c0-1.7.3-2 2-2h5.1c.4 2.5.4 2.5 3 2.5h5c2.4 0 2.5-.1 2.8-2.6 2 0 4-.1 6 .1.4 0 1.1.9 1.1 1.4.1 5.6.1 11.2.1 16.8zM13.2 19.8c-1.1-.2-1.2-.6-.5-1.4l.7-.9c1.2-2 .6-4.1-1.3-4.7-1.4-.4-2.8 0-3.6 1.1-.8 1.2-.5 2.8.7 4.3.9 1.1.9 1.2-.5 1.6-2 .5-2.7 1.5-2.7 3.3 0 1.1.4 1.6 1.5 1.5h7.1c1 0 1.3-.4 1.4-1.4.1-2-.6-2.9-2.8-3.4zM23.5 13.8h-3.6c-.9 0-1.7.7-1.7 1.7 0 .9.7 1.7 1.7 1.7h3.6c.9 0 1.7-.7 1.7-1.7s-.8-1.7-1.7-1.7zM23.5 19.7h-3.6c-.9 0-1.7.7-1.7 1.7s.8 1.6 1.7 1.6h3.6c.9 0 1.7-.7 1.7-1.7s-.8-1.6-1.7-1.6z"/></svg>