<svg xmlns="http://www.w3.org/2000/svg" viewBox="0 0 32 32" enable-background="new 0 0 32 32"><g fill-rule="evenodd" clip-rule="evenodd" fill="#010101"><path d="M13.4 6.7h2.7v6.1h-2.7zM23.7 21.1l4-3-4.6 1v-.1l.9-5-.9 1v-5.2c0-3.1-3.4-5-5.1-5h-14.9c-1.7 0-3.1 1.4-3.1 3.1v17c0 1.7 1.4 3.1 3.1 3.1h9.7l-1.1 1.2 2.3-1.2h3.4l-1.5 4 3.6-4.1h.5c.4 0 .8-.1 1.1-.2l4.3 3.1-2.6-5v-.1l4.1.5-2.9-2.5 4-2-4.3-.6zm-3.3-3.7v.6l-.5.5-.7-2.2h.2c.6.1 1 .5 1 1.1zm-1.6-1l-.4 2.5-3.7-2.5h4.1zm-14.3-9.5c0-.6.5-1 1-1h11.2c.6 0 1 .5 1 1v5.9c0 .6-.5 1-1 1h-11.1c-.6 0-1-.5-1-1v-5.9zm-.7 20c-.6 0-1-.5-1-1v-8.5c0-.6.5-1 1-1h9.9l2.5 3.7-4.3-.3 3.5 2.6-6 1.2 6.6 1-2.3 2.3h-9.9zm12.1 0l2-1-.3 1h-1.7zM22.5 3.6h9.7v2.5h-9.7z"/></g></svg>