<svg xmlns="http://www.w3.org/2000/svg" viewBox="0 0 32 32" enable-background="new 0 0 32 32"><path fill-rule="evenodd" clip-rule="evenodd" d="M27 4.9c-.4-.4-.8-.9-1.2-1.4-.2-.2-.3-.3-.6-.1.1.6.2 1.2.4 1.8.1.6-.1 1-.6 1.1-.6.1-.9-.1-1.1-.8-.1-.6-.2-1.2-.4-1.9-.2.3-.4.4-.5.5l-.6 1.9c0 .1 0 .3.1.4l1.2 1.4.5.5c0 .4-.1.8-.5 1.2-.6.6-1.3.9-2.1 1.1l-.3-.1c-.3-.1-.5-.2-.8-.2h-2.7c-.3 0-.4-.1-.3-.4h1.1c.5 0 .8-.3.8-.8v-1.2h.2c.5 0 .6-.1.6-.6v-1c0-.8 0-.8-.8-.9h-.1v-1.5c0-.6-.3-.9-.9-.9h-2.6c-.1-.3 0-.4.2-.5.6-.3.9-1 .6-1.5l-.7-.8h-.7l-.1.1c-.5.2-.8.6-.8 1.1 0 .5.3.9.7 1.1.1.1.2.3.3.5h-2.7c-.7 0-1 .3-1 1v1.4c-.8.1-.9.1-.9.9v.8c0 .8 0 .8.8.8l.1.1v1c0 .6.3.9.9.9h1.1c.1.3 0 .4-.2.4h-1.6c-.7 0-1.4-.2-2.1.3h-.2c-.3.1-.7.1-1 .3-1.7.6-3.5 2-3.2 4.4 0 .1 0 .1-.1.2s-.2.2-.3.4l-.6 1.8c.5 0 .5.1.7.3l1.3 1.5c.2.2.4.2.6.1l-.4-1.8c-.1-.6.1-.9.7-1 .5-.1.9.1 1 .7.1.6.3 1.2.4 1.9 0 0 .1 0 .1.1.1-.4.3-.5.3-.6l.6-1.9c0-.1 0-.3-.1-.4-.4-.5-.8-1-1.3-1.4 0-.2-.2-.3-.4-.4-.2-1.1 1.3-2.1 2.3-2.2v6.800000000000001c0 .9.1 1 .9 1.3v8.4c-.2 0-.3 0-.5.1v2c-.2 0-.3 0-.4.1v.7h5.3c0-.2 0-.4-.1-.7-.1 0-.3 0-.4-.1v-2c-.1 0-.3 0-.4-.1v-8.4h2.5v8.4c-.1 0-.3 0-.5.1v2h-.5v.7h5.3v-.7h-.5v-2.1c-.4.1-.4-.2-.4-.4v-8c.9-.2 1-.4 1-1.3v-6.8c.8-.3 1.5-.4 2.2-.7 1.3-.6 2.2-1.6 2.5-3.1.1-.5 0-1 .3-1.5s.4-1.2.6-1.8c.2-.2.2-.4 0-.6zm-9.2-.6c.6 0 1.2.5 1.1 1.2 0 .6-.5 1.1-1.2 1.1-.6 0-1.1-.5-1.1-1.2 0-.6.6-1.1 1.2-1.1zm-2.2-2.4c-.4-.2-.5-.5-.4-.9.1-.3.4-.6.7-.6.3 0 .6.2.7.6.1.4-.1.6-.5.9-.1-.2-.3-.3-.5 0zm-2.8 3.5c0-.6.5-1.1 1.1-1.1.6 0 1.2.6 1.2 1.2s-.5 1.1-1.2 1.1c-.6 0-1.1-.5-1.1-1.2zm.4 2.8c0-.5.4-.8.9-.8h3.5c.5 0 .9.3.9.7 0 .5-.3.8-.9.8h-3.6c-.4 0-.8-.3-.8-.7zm5.7 5.6c0 .3-.2.5-.5.5h-1.4c-.1 0-.2-.1-.2-.2-.1-.1-.1-.3-.2-.5l.9-1 .1-.4-.4.1c-.2.2-.3.4-.5.5-.2.3-.4.6-.9.5-.5-.1-.8.4-1 .9h-1.5c-.3 0-.5-.2-.5-.5v-2c0-.3.2-.5.4-.5h5.2c.3 0 .4.2.4.5.1.8.1 1.5.1 2.1z"/></svg>