<svg xmlns="http://www.w3.org/2000/svg" viewBox="0 0 32 32" enable-background="new 0 0 32 32"><g fill-rule="evenodd" clip-rule="evenodd"><path d="M21.6 10.9c-.6-3.1-1.7-6-3.6-8.6-.6-.8-1.3-1.5-2-2.3l-.7.7c-1.7 1.8-3 3.9-3.8 6.3-1.9 5.1-2.1 10.4-1 15.7.3 1.8 1 3.4 2 4.9.5.7 1.2 1.3 2 1.7l.6.2v-7.4c0-.4.1-.8.5-1 .6-.3 1.3.2 1.3.9v7.4c.1 0 .1 0 .2-.1 1.1-.4 1.9-1.2 2.6-2.2 1-1.6 1.6-3.3 1.9-5.2.7-3.5.7-7.3 0-11zm-8.7-2.1c.7-2.2 1.6-4.1 3.1-5.9 1.4 1.8 2.4 3.7 3.1 5.9-2.1.4-4.1.4-6.2 0zM27.1 24.7c0-1-.4-1.8-1.2-2.4-.8-.6-1.7-.7-2.6-.6-.1 0-.2.2-.2.3l-.7 2.9c-.3.9-.7 1.8-1.1 2.7 1.9 1.4 3.9 2.9 6 4.4v-.4c-.2-2.3-.2-4.6-.2-6.9zM8.7 21.7h-1.1c-1.3.3-2.8 1.3-2.7 3.2.1 2.2 0 4.4 0 6.7v.5c2-1.5 4-3 6-4.4-1-1.8-1.5-3.6-1.9-5.6 0-.2-.2-.4-.3-.4z"/></g></svg>