<svg xmlns="http://www.w3.org/2000/svg" viewBox="0 0 32 32" enable-background="new 0 0 32 32"><path d="M8.9 11.6s1.8 1.9 5.7 0c0 0-.3-2.3 1.9-4.6.4-.4.2-2.2-1.5-1.4-.3.1-.7.6-1.4.1-.5-.2-2-2.6-3.2-1.1-.4.4-.3 1-1.3 1.6-.9.7-3.8-.9-2.5 1.6l2.3 3.8zm2.6-4.4l1.4 1.3-.3.6-1-.9-1.2.9-.4-.6 1.5-1.3zM10.2 21c0 1.2.2 2 .6 2.5.3.4.7.6 1.2.7v-6.2c-.5.1-.9.3-1.2.7-.4.5-.6 1.2-.6 2.3zM14.4 12.9c-1.9 1.4-5.2.1-5.2.1-4.8 1.1-10.1 8-9.1 12.1 1.1 4.1 8.3 4 8.3 4h9.3c8.9-.5 7.1-6.5 7.1-6.5-2.8-8.9-10.4-9.7-10.4-9.7zm-1.5 13v1.1h-.9v-1.2c-1-.1-1.9-.5-2.6-1.2-.8-.8-1.2-2-1.2-3.4 0-1.5.4-2.7 1.2-3.6.7-.7 1.5-1.1 2.6-1.2v-.6h.9v.6c1 .1 1.8.4 2.4 1 .4.4.7 1 .9 1.7l-1.8.4c-.1-.5-.3-.9-.7-1.1-.2-.2-.5-.3-.8-.4v6.3c.8-.2 1.3-.8 1.6-1.9l1.8.6c-.5 1.7-1.6 2.7-3.4 2.9zM22.4 7.3s1.1 1.1 3.4 0c0 0-.2-1.4 1.1-2.8.2-.2.1-1.3-.9-.8-.2.1-.4.3-.9.1-.3-.1-1.2-1.5-1.9-.6-.2.2-.2.5-.7.9-.5.4-2.3-.6-1.5 1l1.4 2.2zm1.5-2.6l.8.8-.2.4-.6-.6-.7.6-.2-.4.9-.8zM23.2 12.9c0 .7.1 1.2.4 1.5.2.2.4.4.7.4v-3.7c-.3.1-.5.2-.7.4-.3.3-.4.8-.4 1.4zM31.9 13.9c-1.7-5.4-6.2-5.8-6.2-5.8-1.1.9-3.1.1-3.1.1-2 .4-4.1 2.5-5 4.6 1.9.5 4.5 1.8 6.5 5h3.6c5.3-.3 4.2-3.9 4.2-3.9zm-7.1 1.9v.7h-.5v-.7c-.6-.1-1.1-.3-1.5-.7-.5-.5-.8-1.2-.8-2.1 0-.9.2-1.6.7-2.1.4-.4.9-.7 1.5-.7v-.4h.5v.4c.6 0 1.1.2 1.4.6.3.2.4.6.6 1l-1 .2c-.1-.3-.2-.5-.4-.7-.1-.1-.3-.2-.5-.2v3.7c.5-.1.8-.5.9-1.1l1.1.3c-.3 1.1-.9 1.7-2 1.8z"/></svg>