<svg xmlns="http://www.w3.org/2000/svg" viewBox="0 0 32 32" enable-background="new 0 0 32 32"><path d="M29.5 7.7c-1.2 0-2.2.8-2.5 2l-11-3.8v-.1c0-.8-.7-1.5-1.5-1.5s-1.5.7-1.5 1.5c0 .4.2.8.4 1l-11.6 13.6c-.2-.1-.3-.1-.5-.1-.7 0-1.3.6-1.3 1.3 0 .7.6 1.3 1.3 1.3.5 0 1-.3 1.2-.8l10.6 2.5-.1.6c0 1.3 1.1 2.4 2.4 2.4s2.4-1.1 2.4-2.4c0-.3-.1-.6-.1-.8l8.3-3.3c.2.2.5.3.8.3.7 0 1.3-.6 1.3-1.3 0-.4-.2-.8-.5-1l1.2-6.4c.2.1.4.1.6.1 1.4 0 2.5-1.1 2.5-2.5.1-1.5-1-2.6-2.4-2.6zm-2.1 4l-4.1 4.6-2.3-2.9 6.1-2.4c0 .3.2.5.3.7zm-12.9-4.4l.4 8.1-2.4.9c-.1-.2-.2-.3-.4-.4l1.9-8.7c.2.1.4.1.5.1zm6 5.9l-5.3 2.1-.2-8c.2-.1.4-.1.5-.3l5 6.2zm-7.8 3.9c0-.1 0-.3-.1-.4l2.3-.9.2 7c-.2 0-.5.1-.7.2l-2.2-4.9c.3-.2.5-.6.5-1zm4.3 6.3c-.4-.3-.9-.5-1.5-.5l-.3-7.1 5.5-2.2 2.4 3-6.1 6.8zm9.9-13.5v.8l-6.2 2.5-5.1-6.3c.2-.2.3-.4.3-.7l11 3.7zm-13.3-2.9l.2.1-1.9 8.7c-.2-.1-.4-.1-.6-.1-.8 0-1.4.6-1.4 1.4v.3l-7.9 3.1 11.6-13.5zm-11 14.9v-.3c0-.3-.1-.6-.3-.8l7.7-3c.2.5.7.8 1.3.8.3 0 .5-.1.8-.2l2.2 4.8c-.5.3-.9.7-1.1 1.3l-10.6-2.6zm14.6 1.7l6.1-6.8 2.3 2.8c-.1.2-.1.3-.1.5 0 .3.1.6.3.8l-8.2 3.3c-.1-.2-.2-.4-.4-.6zm10.2-4.6c-.2-.1-.4-.1-.6-.1-.4 0-.8.2-1.1.6l-2.3-2.8 4.1-4.6c.3.3.6.5.9.6l-1 6.3z"/></svg>