<svg xmlns="http://www.w3.org/2000/svg" viewBox="0 0 32 32" enable-background="new 0 0 32 32"><g fill-rule="evenodd" clip-rule="evenodd"><path d="M31.7 18.2c0-3.1-3.3-3.6-5.7-4.1-.7-.1-1.6-.1-2.2-.4-.6-.3-1.2-1.1-1.7-1.5-1.1-1-2.1-2.3-3.7-2.5-3.3-.4-6.9-.3-10.2-.1-1.5.1-3.5-.1-4.5 1-1.1 1.2-1.8 2.6-2.8 3.9.9.2-.5 2.7-.6 3.1-.1.3.1.5.1.9.1.3 0 .7 0 1 .2.7.8 1.1 1.5 1.1-.2-1.7.5-3.5 2.3-3.9 2.3-.4 4 1.7 3.5 3.9h15.7c-.6-2 .7-4.2 2.9-4.1 2.3 0 3.3 2.2 2.8 4.2.6 0 1.8.1 2.2-.4.4-.3.4-1.6.4-2.1zm-21.1-5.1c0 .6-3.6.2-4.1.2-.5 0-1.7.2-1.8-.3-.1-.3.6-1.4.8-1.7.7-.8 1.8-.6 2.7-.6.3 0 2.2-.2 2.4 0 .2.4 0 2 0 2.4zm9.3.9c-.5-.2-.4-1.5-1.4-1-.3.2-.2.6-.4.7-.3.3-.5.2-1.1.2-1.1 0-2.2-.1-3.4-.1-.3 0-1.6.1-1.8-.1-.2-.2-.1-1.4-.1-1.6 0-1-.2-1.4.9-1.5h3.6c1.2 0 1.5.1 2.2 1.1l2 2.4s-.2-.1-.5-.1zm1.8-.4l-2.9-3c1.2-.1 1.5.4 2.3 1.2.6.6 1.7 1.3 2.1 2-.4.2-1 .2-1.5-.2zM4.9 16.8c-3.8 0-3.7 5.9.2 5.7 3.5-.2 3.4-5.7-.2-5.7zm-.1 4.9c-2.7 0-2.6-4.2.1-4.1 2.7 0 2.6 4.1-.1 4.1zM26.4 16.6c-3.7 0-3.7 5.7-.1 5.7 3.7.1 3.8-5.6.1-5.7zm-.1 5c-2.7 0-2.6-4.1 0-4.1 2.7-.1 2.7 4.1 0 4.1-1.1-.1 1.2 0 0 0zM3.4 18.6l-.3.7h.9l-.6-.7c-.1.3.2.3 0 0zM4.5 17.9c-.1.1-.3.2-.5.2l.6.7c-.1-.2-.1-.6-.1-.9-.2.1 0 .3 0 0zM6.6 19.3l-.3-.6-.7.6h1c-.1-.2-.3 0 0 0zM6.4 20.6c.1-.2.2-.4.2-.6h-.9c.2.2.4.4.7.6 0-.2-.3-.2 0 0zM4 20h-.8c.1.2.2.4.2.6.1-.1.7-.5.6-.6zM4.6 21.4v-1l-.6.7c.1.1.3.2.6.3 0-.4-.3-.1 0 0zM5.2 21.4l.6-.3c-.2-.2-.4-.4-.6-.7v1c.3-.1 0-.4 0 0zM5.2 17.9v.9l.6-.6-.6-.3c0 .3.2.1 0 0zM4.9 19.4c-.3.3-.2.3 0 .6.2-.3.3-.3 0-.6-.1.1 0 .1 0 0zM26.7 21.2c.2-.1.4-.2.6-.2l-.6-.7v.9c.2-.1 0-.3 0 0zM26 21.2v-.9c-.2.2-.4.4-.6.7l.6.2c0-.3-.2-.1 0 0zM26.7 17.8v.9l.6-.6c-.2-.2-.4-.3-.6-.3 0 .3.2.1 0 0zM26 17.8l-.6.3.6.7v-1c-.2.1 0 .3 0 0zM27.8 20.5c.1-.2.2-.4.3-.7h-.9l.6.7c.1-.2-.2-.2 0 0zM24.6 19.8c.1.2.2.4.2.6l.7-.6h-.9c.1.2.4 0 0 0zM28.1 19.2c-.1-.2-.2-.4-.3-.7-.2.2-.4.4-.6.7h.9c-.1-.3-.3 0 0 0zM24.9 18.5c-.1.2-.2.4-.2.6h.9c-.3-.2-.5-.4-.7-.6-.1.2.2.2 0 0zM26.4 19.3c-.4.1-.2.6.3.2-.1-.1-.2-.2-.3-.2z"/></g></svg>