<svg xmlns="http://www.w3.org/2000/svg" viewBox="0 0 32 32" enable-background="new 0 0 32 32"><g fill-rule="evenodd" clip-rule="evenodd"><path d="M9.3 13.5c-.1 1.1 0 2.3 0 3.5h-7.4c-1.4 0-1.9.4-1.9 1.9v4c0 1.5.4 1.9 1.9 1.9h7.4c0 1.3-.1 2.4 0 3.5 0 .4.3.9.6 1 .2.1.8-.1 1-.3 3.1-2.6 6.2-5.3 9.4-8.1-3.3-2.8-6.4-5.6-9.6-8.3-.6-.6-1.3-.2-1.4.9zM30.1 7.2h-7.4c0-1.3.1-2.4 0-3.5 0-.4-.3-.9-.6-1-.2-.1-.8.1-1 .3-3.1 2.6-6.2 5.3-9.4 8.1 3.3 2.8 6.4 5.6 9.6 8.3.7.6 1.4.2 1.5-.9.1-1.1 0-2.3 0-3.5h7.4c1.5 0 1.9-.4 1.9-1.9v-4c-.1-1.5-.6-1.9-2-1.9z"/></g></svg>